<svg width="50" height="50" viewBox="0 0 50 50" fill="none" xmlns="http://www.w3.org/2000/svg">
<rect width="50" height="50" rx="16" fill="black"/>
<path d="M19.014 31.438C19.6033 30.97 19.872 30.7533 19.82 30.788C21.5187 29.384 22.8533 28.2313 23.824 27.33C24.812 26.4287 25.644 25.484 26.32 24.496C26.996 23.508 27.334 22.546 27.334 21.61C27.334 20.8993 27.1693 20.3447 26.84 19.946C26.5107 19.5473 26.0167 19.348 25.358 19.348C24.6993 19.348 24.1793 19.5993 23.798 20.102C23.434 20.5873 23.252 21.2807 23.252 22.182H18.962C18.9967 20.7087 19.3087 19.478 19.898 18.49C20.5047 17.502 21.2933 16.774 22.264 16.306C23.252 15.838 24.344 15.604 25.54 15.604C27.6027 15.604 29.154 16.1327 30.194 17.19C31.2513 18.2473 31.78 19.6253 31.78 21.324C31.78 23.1787 31.1473 24.9033 29.882 26.498C28.6167 28.0753 27.0047 29.618 25.046 31.126H32.066V34.74H19.014V31.438Z" fill="white"/>
</svg>
