<svg width="50" height="50" viewBox="0 0 50 50" fill="none" xmlns="http://www.w3.org/2000/svg">
<rect width="50" height="50" rx="16" fill="black"/>
<path d="M18.326 21.376C18.3953 19.5213 19.002 18.0913 20.146 17.086C21.29 16.0807 22.8413 15.578 24.8 15.578C26.1 15.578 27.2093 15.8033 28.128 16.254C29.064 16.7047 29.766 17.32 30.234 18.1C30.7193 18.88 30.962 19.7553 30.962 20.726C30.962 21.87 30.676 22.806 30.104 23.534C29.532 24.2447 28.8647 24.73 28.102 24.99V25.094C29.09 25.4233 29.87 25.9693 30.442 26.732C31.014 27.4947 31.3 28.474 31.3 29.67C31.3 30.7447 31.0487 31.698 30.546 32.53C30.0607 33.3447 29.3413 33.986 28.388 34.454C27.452 34.922 26.334 35.156 25.034 35.156C22.954 35.156 21.29 34.6447 20.042 33.622C18.8113 32.5993 18.1613 31.0567 18.092 28.994H22.408C22.4253 29.7567 22.642 30.3633 23.058 30.814C23.474 31.2473 24.0807 31.464 24.878 31.464C25.554 31.464 26.074 31.2733 26.438 30.892C26.8193 30.4933 27.01 29.9733 27.01 29.332C27.01 28.5 26.7413 27.902 26.204 27.538C25.684 27.1567 24.8433 26.966 23.682 26.966H22.85V23.352H23.682C24.566 23.352 25.2767 23.2047 25.814 22.91C26.3687 22.598 26.646 22.052 26.646 21.272C26.646 20.648 26.4727 20.1627 26.126 19.816C25.7793 19.4693 25.3027 19.296 24.696 19.296C24.0373 19.296 23.5433 19.4953 23.214 19.894C22.902 20.2927 22.72 20.7867 22.668 21.376H18.326Z" fill="white"/>
</svg>
