<svg width="23" height="21" viewBox="0 0 23 21" fill="none" xmlns="http://www.w3.org/2000/svg">
<path d="M9.73802 2.29737L1.26802 16.6269C1.09339 16.9334 1.00099 17.2809 1.00001 17.6348C0.99903 17.9887 1.08951 18.3367 1.26245 18.6441C1.43538 18.9516 1.68474 19.2078 1.98573 19.3873C2.28671 19.5668 2.62882 19.6632 2.97802 19.6671H19.918C20.2672 19.6632 20.6093 19.5668 20.9103 19.3873C21.2113 19.2078 21.4607 18.9516 21.6336 18.6441C21.8065 18.3367 21.897 17.9887 21.896 17.6348C21.8951 17.2809 21.8027 16.9334 21.628 16.6269L13.158 2.29737C12.9797 1.99953 12.7287 1.75329 12.4292 1.58239C12.1297 1.4115 11.7918 1.32172 11.448 1.32172C11.1043 1.32172 10.7663 1.4115 10.4668 1.58239C10.1673 1.75329 9.91629 1.99953 9.73802 2.29737V2.29737Z" stroke="#FBFF21" stroke-width="2" stroke-linecap="round" stroke-linejoin="round"/>
<path d="M11.448 7.50629V11.5599" stroke="#FBFF21" stroke-width="2" stroke-linecap="round" stroke-linejoin="round"/>
<path d="M11.448 15.6135H11.458" stroke="#FBFF21" stroke-width="2" stroke-linecap="round" stroke-linejoin="round"/>
</svg>
