<svg width="178" height="29" viewBox="0 0 178 29" fill="none" xmlns="http://www.w3.org/2000/svg">
<circle cx="12.2168" cy="7.37097" r="4.5" fill="black"/>
<circle cx="4.5" cy="20.5191" r="4.5" fill="black"/>
<circle cx="20.4121" cy="20.5191" r="4.5" fill="black"/>
<path d="M45.3477 6.686C47.9477 6.686 49.9757 7.388 51.4317 8.792C52.8877 10.196 53.6157 12.146 53.6157 14.642C53.6157 16.9473 52.905 18.75 51.4837 20.05C50.0624 21.35 48.0864 22 45.5557 22H38.1717V19.088H40.2777V9.598H38.1717V6.686H45.3477ZM45.0877 19.088C46.7344 19.088 47.9824 18.7153 48.8317 17.97C49.6984 17.2247 50.1317 16.124 50.1317 14.668C50.1317 11.288 48.537 9.598 45.3477 9.598H43.6317V19.088H45.0877ZM58.5234 28.474C57.7261 28.474 56.8941 28.2833 56.0274 27.902L56.6514 25.328C56.9981 25.4667 57.3014 25.5707 57.5614 25.64C57.8387 25.7093 58.1421 25.744 58.4714 25.744C58.8701 25.744 59.2081 25.6313 59.4854 25.406C59.7627 25.198 60.0314 24.8513 60.2914 24.366C60.5514 23.8807 60.8547 23.2133 61.2014 22.364L56.7294 12.822H54.8054V10.196H61.4874V12.822H60.0834L62.6314 18.958L65.2054 12.822H63.9054L64.0614 10.196H70.5094V12.822H68.4554L63.4894 23.846C62.7441 25.51 61.9814 26.6973 61.2014 27.408C60.4387 28.1187 59.5461 28.474 58.5234 28.474ZM71.613 22V19.374H73.823V13.472L71.327 12.614L72.185 9.962L75.851 11.21C76.5443 10.742 77.2377 10.3693 77.931 10.092C78.6243 9.81467 79.5083 9.676 80.583 9.676C81.727 9.676 82.6283 9.90133 83.287 10.352C83.9457 10.8027 84.4137 11.4093 84.691 12.172C84.9857 12.9347 85.133 13.7753 85.133 14.694V19.374H87.291V22H80.791V19.374H81.857V15.084C81.857 14.356 81.7097 13.758 81.415 13.29C81.1203 12.822 80.5657 12.588 79.751 12.588C79.231 12.588 78.7283 12.6833 78.243 12.874C77.775 13.0473 77.3937 13.2467 77.099 13.472V19.374H78.139V22H71.613ZM97.7899 21.558C96.5419 22.1993 95.2939 22.52 94.0459 22.52C92.3646 22.52 91.0906 22.208 90.2239 21.584C89.3572 20.9427 88.9239 20.0153 88.9239 18.802C88.9239 16.3233 90.5706 15.084 93.8639 15.084H96.5939C96.5939 14.0787 96.3772 13.342 95.9439 12.874C95.5279 12.3887 95.0079 12.146 94.3839 12.146C94.0026 12.146 93.6472 12.172 93.3179 12.224C93.0059 12.276 92.6939 12.354 92.3819 12.458L92.1479 13.68L89.4179 13.342L89.9119 10.43C90.6226 10.1873 91.3506 10.0053 92.0959 9.884C92.8586 9.74533 93.6646 9.676 94.5139 9.676C96.2472 9.676 97.5732 10.1353 98.4919 11.054C99.4279 11.9553 99.8959 13.29 99.8959 15.058V19.296L102.002 19.972L101.092 22.676L97.7899 21.558ZM93.9419 17.138C93.4046 17.138 92.9886 17.2853 92.6939 17.58C92.4166 17.8573 92.2779 18.2473 92.2779 18.75C92.2779 19.6687 92.9019 20.128 94.1499 20.128C95.0166 20.128 95.8312 19.9027 96.5939 19.452V17.138H93.9419ZM117.005 20.44C116.468 20.8213 115.913 21.1767 115.341 21.506C114.786 21.8353 114.162 22.0953 113.469 22.286C112.793 22.4767 111.996 22.572 111.077 22.572C109.5 22.572 108.104 22.234 106.891 21.558C105.695 20.8647 104.759 19.9027 104.083 18.672C103.407 17.4413 103.069 16.0027 103.069 14.356C103.069 12.7093 103.39 11.2707 104.031 10.04C104.672 8.80933 105.591 7.856 106.787 7.18C108 6.48667 109.448 6.14 111.129 6.14C112.204 6.14 113.183 6.28733 114.067 6.582C114.951 6.85933 115.714 7.232 116.355 7.7L117.213 11.444L114.483 12.146L113.859 9.442C113.426 9.21667 112.984 9.06933 112.533 9C112.1 8.91333 111.658 8.87 111.207 8.87C110.392 8.87 109.63 9.09533 108.919 9.546C108.208 9.99667 107.636 10.638 107.203 11.47C106.77 12.2847 106.553 13.2467 106.553 14.356C106.553 15.9507 106.96 17.242 107.775 18.23C108.607 19.2007 109.69 19.686 111.025 19.686C111.562 19.686 112.048 19.6253 112.481 19.504C112.932 19.3827 113.374 19.2353 113.807 19.062V16.592H110.479V13.992H117.005V20.44ZM124.303 11.236C125.066 10.7333 125.776 10.3607 126.435 10.118C127.094 9.87533 127.744 9.754 128.385 9.754C129.044 9.754 129.763 9.90133 130.543 10.196L130.985 13.602L128.255 14.174L127.995 12.77C127.406 12.8393 126.877 12.9607 126.409 13.134C125.941 13.29 125.56 13.4893 125.265 13.732L125.239 19.374H127.787V22H119.779V19.374H121.963V13.42L119.467 12.588L120.325 9.936L124.303 11.236ZM141.208 21.558C139.96 22.1993 138.712 22.52 137.464 22.52C135.783 22.52 134.509 22.208 133.642 21.584C132.775 20.9427 132.342 20.0153 132.342 18.802C132.342 16.3233 133.989 15.084 137.282 15.084H140.012C140.012 14.0787 139.795 13.342 139.362 12.874C138.946 12.3887 138.426 12.146 137.802 12.146C137.421 12.146 137.065 12.172 136.736 12.224C136.424 12.276 136.112 12.354 135.8 12.458L135.566 13.68L132.836 13.342L133.33 10.43C134.041 10.1873 134.769 10.0053 135.514 9.884C136.277 9.74533 137.083 9.676 137.932 9.676C139.665 9.676 140.991 10.1353 141.91 11.054C142.846 11.9553 143.314 13.29 143.314 15.058V19.296L145.42 19.972L144.51 22.676L141.208 21.558ZM137.36 17.138C136.823 17.138 136.407 17.2853 136.112 17.58C135.835 17.8573 135.696 18.2473 135.696 18.75C135.696 19.6687 136.32 20.128 137.568 20.128C138.435 20.128 139.249 19.9027 140.012 19.452V17.138H137.36ZM145.948 27.824V25.224H148.132V13.264L145.662 12.432L146.52 9.78L150.264 11.054C150.853 10.6207 151.477 10.2827 152.136 10.04C152.812 9.79733 153.444 9.676 154.034 9.676C155.888 9.676 157.336 10.248 158.376 11.392C159.433 12.5187 159.962 14.0787 159.962 16.072C159.962 17.3893 159.702 18.542 159.182 19.53C158.679 20.5007 157.951 21.2547 156.998 21.792C156.062 22.312 154.952 22.572 153.67 22.572C152.82 22.572 152.075 22.4853 151.434 22.312V25.224H153.618V27.824H145.948ZM153.618 19.946C154.571 19.946 155.299 19.6167 155.802 18.958C156.322 18.282 156.582 17.3373 156.582 16.124C156.582 14.928 156.339 14.0007 155.854 13.342C155.386 12.6833 154.718 12.354 153.852 12.354C152.881 12.354 152.058 12.666 151.382 13.29V19.556C151.676 19.6773 152.023 19.7727 152.422 19.842C152.82 19.9113 153.219 19.946 153.618 19.946ZM161.557 22V19.374H163.715V7.83L161.245 6.998L162.103 4.346L167.017 6.01V10.612C168.109 9.988 169.401 9.676 170.891 9.676C172.226 9.676 173.257 10.1007 173.985 10.95C174.731 11.7993 175.103 13.004 175.103 14.564V19.374H177.287V22H170.761V19.374H171.801V14.98C171.801 14.1133 171.628 13.4807 171.281 13.082C170.952 12.666 170.423 12.458 169.695 12.458C169.366 12.458 168.95 12.5187 168.447 12.64C167.962 12.744 167.494 12.8913 167.043 13.082V19.374H168.083V22H161.557Z" fill="#001376"/>
</svg>
