<svg width="4" height="19" viewBox="0 0 4 19" fill="none" xmlns="http://www.w3.org/2000/svg">
<path d="M2 10.4558C2.55228 10.4558 3 10.002 3 9.44236C3 8.88267 2.55228 8.42896 2 8.42896C1.44772 8.42896 1 8.88267 1 9.44236C1 10.002 1.44772 10.4558 2 10.4558Z" stroke="white" stroke-width="2" stroke-linecap="round" stroke-linejoin="round"/>
<path d="M2 3.36192C2.55228 3.36192 3 2.90821 3 2.34852C3 1.78883 2.55228 1.33511 2 1.33511C1.44772 1.33511 1 1.78883 1 2.34852C1 2.90821 1.44772 3.36192 2 3.36192Z" stroke="white" stroke-width="2" stroke-linecap="round" stroke-linejoin="round"/>
<path d="M2 17.5496C2.55228 17.5496 3 17.0959 3 16.5362C3 15.9765 2.55228 15.5228 2 15.5228C1.44772 15.5228 1 15.9765 1 16.5362C1 17.0959 1.44772 17.5496 2 17.5496Z" stroke="white" stroke-width="2" stroke-linecap="round" stroke-linejoin="round"/>
</svg>
