<svg width="56" height="44" viewBox="0 0 56 44" fill="none" xmlns="http://www.w3.org/2000/svg">
<path d="M1 41.2382C12.7055 45.9812 13.8977 27.1527 19.8589 23.9906C17.8726 15.1682 41.0185 31.2287 40.0184 23.9906C39.0183 16.7526 54 2 54 2" stroke="#05DB5A" stroke-width="3.5"/>
<path d="M1 41.2382C12.7055 45.9812 13.8977 27.1527 19.8589 23.9906C17.8726 15.1682 41.0185 31.2287 40.0184 23.9906C39.0183 16.7526 54 2 54 2" stroke="#05DB5A" stroke-width="3.5"/>
<path d="M1 41.2382C12.7055 45.9812 13.8977 27.1527 19.8589 23.9906C17.8726 15.1682 41.0185 31.2287 40.0184 23.9906C39.0183 16.7526 54 2 54 2" stroke="#CE1F1F" stroke-opacity="0.8" stroke-width="3.5"/>
</svg>
