<svg width="77" height="44" viewBox="0 0 77 44" fill="none" xmlns="http://www.w3.org/2000/svg">
<path d="M1 41.2382C17.5644 45.9812 19.2515 27.1527 27.6871 23.9906C24.8764 15.1682 57.6299 31.2287 56.2147 23.9906C54.7995 16.7526 76 2 76 2" stroke="#05DB5A" stroke-width="3.5"/>
<path d="M1 41.2382C17.5644 45.9812 19.2515 27.1527 27.6871 23.9906C24.8764 15.1682 57.6299 31.2287 56.2147 23.9906C54.7995 16.7526 76 2 76 2" stroke="#05DB5A" stroke-width="3.5"/>
<path d="M1 41.2382C17.5644 45.9812 19.2515 27.1527 27.6871 23.9906C24.8764 15.1682 57.6299 31.2287 56.2147 23.9906C54.7995 16.7526 76 2 76 2" stroke="#949393" stroke-opacity="0.8" stroke-width="3.5"/>
</svg>
