<svg width="85" height="32" viewBox="0 0 85 32" fill="none" xmlns="http://www.w3.org/2000/svg">
<circle cx="7" cy="15" r="7" fill="#737373"/>
<path d="M29.274 23.147C27.888 23.147 26.614 22.825 25.452 22.181C24.304 21.537 23.387 20.641 22.701 19.493C22.029 18.331 21.693 17.029 21.693 15.587C21.693 14.145 22.029 12.85 22.701 11.702C23.387 10.554 24.304 9.658 25.452 9.014C26.614 8.37 27.888 8.048 29.274 8.048C30.66 8.048 31.927 8.37 33.075 9.014C34.237 9.658 35.147 10.554 35.805 11.702C36.477 12.85 36.813 14.145 36.813 15.587C36.813 17.029 36.477 18.331 35.805 19.493C35.133 20.641 34.223 21.537 33.075 22.181C31.927 22.825 30.66 23.147 29.274 23.147ZM29.274 19.871C30.45 19.871 31.388 19.479 32.088 18.695C32.802 17.911 33.159 16.875 33.159 15.587C33.159 14.285 32.802 13.249 32.088 12.479C31.388 11.695 30.45 11.303 29.274 11.303C28.084 11.303 27.132 11.688 26.418 12.458C25.718 13.228 25.368 14.271 25.368 15.587C25.368 16.889 25.718 17.932 26.418 18.716C27.132 19.486 28.084 19.871 29.274 19.871ZM43.6648 15.512H42.0088V23H38.9308V15.512H37.8148V12.956H38.9308V12.668C38.9308 11.432 39.2848 10.496 39.9928 9.86C40.7008 9.212 41.7388 8.888 43.1068 8.888C43.3348 8.888 43.5028 8.894 43.6108 8.906V11.516C43.0228 11.48 42.6088 11.564 42.3688 11.768C42.1288 11.972 42.0088 12.338 42.0088 12.866V12.956H43.6648V15.512ZM50.1511 15.512H48.4951V23H45.4171V15.512H44.3011V12.956H45.4171V12.668C45.4171 11.432 45.7711 10.496 46.4791 9.86C47.1871 9.212 48.2251 8.888 49.5931 8.888C49.8211 8.888 49.9891 8.894 50.0971 8.906V11.516C49.5091 11.48 49.0951 11.564 48.8551 11.768C48.6151 11.972 48.4951 12.338 48.4951 12.866V12.956H50.1511V15.512ZM54.6754 9.68V23H51.5974V9.68H54.6754ZM58.454 11.912C57.914 11.912 57.47 11.756 57.122 11.444C56.786 11.12 56.618 10.724 56.618 10.256C56.618 9.776 56.786 9.38 57.122 9.068C57.47 8.744 57.914 8.582 58.454 8.582C58.982 8.582 59.414 8.744 59.75 9.068C60.098 9.38 60.272 9.776 60.272 10.256C60.272 10.724 60.098 11.12 59.75 11.444C59.414 11.756 58.982 11.912 58.454 11.912ZM59.984 12.956V23H56.906V12.956H59.984ZM68.3346 12.848C69.5106 12.848 70.4466 13.232 71.1426 14C71.8506 14.756 72.2046 15.8 72.2046 17.132V23H69.1446V17.546C69.1446 16.874 68.9706 16.352 68.6226 15.98C68.2746 15.608 67.8066 15.422 67.2186 15.422C66.6306 15.422 66.1626 15.608 65.8146 15.98C65.4666 16.352 65.2926 16.874 65.2926 17.546V23H62.2146V12.956H65.2926V14.288C65.6046 13.844 66.0246 13.496 66.5526 13.244C67.0806 12.98 67.6746 12.848 68.3346 12.848ZM83.8115 17.816C83.8115 18.104 83.7935 18.404 83.7575 18.716H76.7915C76.8395 19.34 77.0375 19.82 77.3855 20.156C77.7455 20.48 78.1835 20.642 78.6995 20.642C79.4675 20.642 80.0015 20.318 80.3015 19.67H83.5775C83.4095 20.33 83.1035 20.924 82.6595 21.452C82.2275 21.98 81.6815 22.394 81.0215 22.694C80.3615 22.994 79.6235 23.144 78.8075 23.144C77.8235 23.144 76.9475 22.934 76.1795 22.514C75.4115 22.094 74.8115 21.494 74.3795 20.714C73.9475 19.934 73.7315 19.022 73.7315 17.978C73.7315 16.934 73.9415 16.022 74.3615 15.242C74.7935 14.462 75.3935 13.862 76.1615 13.442C76.9295 13.022 77.8115 12.812 78.8075 12.812C79.7795 12.812 80.6435 13.016 81.3995 13.424C82.1555 13.832 82.7435 14.414 83.1635 15.17C83.5955 15.926 83.8115 16.808 83.8115 17.816ZM80.6615 17.006C80.6615 16.478 80.4815 16.058 80.1215 15.746C79.7615 15.434 79.3115 15.278 78.7715 15.278C78.2555 15.278 77.8175 15.428 77.4575 15.728C77.1095 16.028 76.8935 16.454 76.8095 17.006H80.6615Z" fill="#878887"/>
</svg>
