<svg width="80" height="32" viewBox="0 0 80 32" fill="none" xmlns="http://www.w3.org/2000/svg">
<circle cx="7" cy="15" r="7" fill="#01AE08"/>
<path d="M28.253 23.147C26.881 23.147 25.621 22.825 24.473 22.181C23.325 21.537 22.415 20.648 21.743 19.514C21.071 18.366 20.735 17.071 20.735 15.629C20.735 14.201 21.071 12.92 21.743 11.786C22.415 10.638 23.325 9.742 24.473 9.098C25.621 8.454 26.881 8.132 28.253 8.132C29.639 8.132 30.899 8.454 32.033 9.098C33.181 9.742 34.084 10.638 34.742 11.786C35.414 12.92 35.75 14.201 35.75 15.629C35.75 17.071 35.414 18.366 34.742 19.514C34.084 20.648 33.181 21.537 32.033 22.181C30.885 22.825 29.625 23.147 28.253 23.147ZM28.253 20.522C29.135 20.522 29.912 20.326 30.584 19.934C31.256 19.528 31.781 18.954 32.159 18.212C32.537 17.47 32.726 16.609 32.726 15.629C32.726 14.649 32.537 13.795 32.159 13.067C31.781 12.325 31.256 11.758 30.584 11.366C29.912 10.974 29.135 10.778 28.253 10.778C27.371 10.778 26.587 10.974 25.901 11.366C25.229 11.758 24.704 12.325 24.326 13.067C23.948 13.795 23.759 14.649 23.759 15.629C23.759 16.609 23.948 17.47 24.326 18.212C24.704 18.954 25.229 19.528 25.901 19.934C26.587 20.326 27.371 20.522 28.253 20.522ZM43.3223 13.412C44.4329 13.412 45.3169 13.7747 45.9743 14.5C46.6429 15.214 46.9773 16.2 46.9773 17.458V23H44.0873V17.849C44.0873 17.2143 43.9229 16.7213 43.5943 16.37C43.2656 16.0187 42.8236 15.843 42.2683 15.843C41.7129 15.843 41.2709 16.0187 40.9423 16.37C40.6136 16.7213 40.4493 17.2143 40.4493 17.849V23H37.5423V13.514H40.4493V14.772C40.7439 14.3527 41.1406 14.024 41.6393 13.786C42.1379 13.5367 42.6989 13.412 43.3223 13.412ZM51.9044 10.42V23H48.9974V10.42H51.9044ZM55.473 12.528C54.963 12.528 54.5437 12.3807 54.215 12.086C53.8977 11.78 53.739 11.406 53.739 10.964C53.739 10.5107 53.8977 10.1367 54.215 9.842C54.5437 9.536 54.963 9.383 55.473 9.383C55.9717 9.383 56.3797 9.536 56.697 9.842C57.0257 10.1367 57.19 10.5107 57.19 10.964C57.19 11.406 57.0257 11.78 56.697 12.086C56.3797 12.3807 55.9717 12.528 55.473 12.528ZM56.918 13.514V23H54.011V13.514H56.918ZM64.8047 13.412C65.9154 13.412 66.7994 13.7747 67.4567 14.5C68.1254 15.214 68.4597 16.2 68.4597 17.458V23H65.5697V17.849C65.5697 17.2143 65.4054 16.7213 65.0767 16.37C64.748 16.0187 64.306 15.843 63.7507 15.843C63.1954 15.843 62.7534 16.0187 62.4247 16.37C62.096 16.7213 61.9317 17.2143 61.9317 17.849V23H59.0247V13.514H61.9317V14.772C62.2264 14.3527 62.623 14.024 63.1217 13.786C63.6204 13.5367 64.1814 13.412 64.8047 13.412ZM79.4218 18.104C79.4218 18.376 79.4048 18.6593 79.3708 18.954H72.7918C72.8371 19.5433 73.0241 19.9967 73.3528 20.314C73.6928 20.62 74.1064 20.773 74.5938 20.773C75.3191 20.773 75.8234 20.467 76.1068 19.855H79.2008C79.0421 20.4783 78.7531 21.0393 78.3338 21.538C77.9258 22.0367 77.4101 22.4277 76.7868 22.711C76.1634 22.9943 75.4664 23.136 74.6958 23.136C73.7664 23.136 72.9391 22.9377 72.2138 22.541C71.4884 22.1443 70.9218 21.5777 70.5138 20.841C70.1058 20.1043 69.9018 19.243 69.9018 18.257C69.9018 17.271 70.1001 16.4097 70.4968 15.673C70.9048 14.9363 71.4714 14.3697 72.1968 13.973C72.9221 13.5763 73.7551 13.378 74.6958 13.378C75.6138 13.378 76.4298 13.5707 77.1438 13.956C77.8578 14.3413 78.4131 14.891 78.8098 15.605C79.2178 16.319 79.4218 17.152 79.4218 18.104ZM76.4468 17.339C76.4468 16.8403 76.2768 16.4437 75.9368 16.149C75.5968 15.8543 75.1718 15.707 74.6618 15.707C74.1744 15.707 73.7608 15.8487 73.4208 16.132C73.0921 16.4153 72.8881 16.8177 72.8088 17.339H76.4468Z" fill="#008505"/>
</svg>
