<svg width="320" height="160" viewBox="0 0 320 160" fill="none" xmlns="http://www.w3.org/2000/svg">
<rect width="320" height="160" rx="35" fill="#EAF2FF"/>
<path d="M30 106.238C46.5644 110.981 48.2515 92.1527 56.6871 88.9906C53.8764 80.1682 86.6299 96.2287 85.2147 88.9906C83.7995 81.7526 105 67 105 67" stroke="#05DB5A" stroke-width="3.5"/>
<path d="M30 106.238C46.5644 110.981 48.2515 92.1527 56.6871 88.9906C53.8764 80.1682 86.6299 96.2287 85.2147 88.9906C83.7995 81.7526 105 67 105 67" stroke="#05DB5A" stroke-width="3.5"/>
<path d="M30 106.238C46.5644 110.981 48.2515 92.1527 56.6871 88.9906C53.8764 80.1682 86.6299 96.2287 85.2147 88.9906C83.7995 81.7526 105 67 105 67" stroke="#949393" stroke-opacity="0.8" stroke-width="3.5"/>
<path d="M234.522 125.892C236.186 124.505 237.512 123.353 238.5 122.434C239.488 121.498 240.311 120.527 240.97 119.522C241.629 118.517 241.958 117.529 241.958 116.558C241.958 115.674 241.75 114.981 241.334 114.478C240.918 113.975 240.277 113.724 239.41 113.724C238.543 113.724 237.876 114.019 237.408 114.608C236.94 115.18 236.697 115.969 236.68 116.974H233.144C233.213 114.894 233.829 113.317 234.99 112.242C236.169 111.167 237.659 110.63 239.462 110.63C241.438 110.63 242.955 111.159 244.012 112.216C245.069 113.256 245.598 114.634 245.598 116.35C245.598 117.702 245.234 118.993 244.506 120.224C243.778 121.455 242.946 122.529 242.01 123.448C241.074 124.349 239.852 125.441 238.344 126.724H246.014V129.74H233.17V127.036L234.522 125.892ZM252.52 124.67C252.658 125.433 252.97 126.022 253.456 126.438C253.958 126.837 254.626 127.036 255.458 127.036C256.532 127.036 257.312 126.594 257.798 125.71C258.283 124.809 258.526 123.301 258.526 121.186C258.127 121.741 257.564 122.174 256.836 122.486C256.125 122.798 255.354 122.954 254.522 122.954C253.412 122.954 252.407 122.729 251.506 122.278C250.622 121.81 249.92 121.125 249.4 120.224C248.88 119.305 248.62 118.196 248.62 116.896C248.62 114.972 249.192 113.447 250.336 112.32C251.48 111.176 253.04 110.604 255.016 110.604C257.477 110.604 259.21 111.393 260.216 112.97C261.238 114.547 261.75 116.922 261.75 120.094C261.75 122.347 261.55 124.193 261.152 125.632C260.77 127.071 260.103 128.163 259.15 128.908C258.214 129.653 256.931 130.026 255.302 130.026C254.019 130.026 252.927 129.783 252.026 129.298C251.124 128.795 250.431 128.145 249.946 127.348C249.478 126.533 249.209 125.641 249.14 124.67H252.52ZM255.276 119.99C256.177 119.99 256.888 119.713 257.408 119.158C257.928 118.603 258.188 117.858 258.188 116.922C258.188 115.899 257.91 115.111 257.356 114.556C256.818 113.984 256.082 113.698 255.146 113.698C254.21 113.698 253.464 113.993 252.91 114.582C252.372 115.154 252.104 115.917 252.104 116.87C252.104 117.789 252.364 118.543 252.884 119.132C253.421 119.704 254.218 119.99 255.276 119.99ZM267.755 119.964C266.022 119.063 265.155 117.667 265.155 115.778C265.155 114.842 265.389 113.993 265.857 113.23C266.342 112.45 267.062 111.835 268.015 111.384C268.986 110.916 270.164 110.682 271.551 110.682C272.938 110.682 274.108 110.916 275.061 111.384C276.032 111.835 276.751 112.45 277.219 113.23C277.704 113.993 277.947 114.842 277.947 115.778C277.947 116.731 277.713 117.572 277.245 118.3C276.777 119.011 276.153 119.565 275.373 119.964C276.326 120.38 277.072 120.987 277.609 121.784C278.146 122.581 278.415 123.526 278.415 124.618C278.415 125.797 278.112 126.828 277.505 127.712C276.916 128.579 276.101 129.246 275.061 129.714C274.021 130.182 272.851 130.416 271.551 130.416C270.251 130.416 269.081 130.182 268.041 129.714C267.018 129.246 266.204 128.579 265.597 127.712C265.008 126.828 264.713 125.797 264.713 124.618C264.713 123.526 264.982 122.581 265.519 121.784C266.056 120.969 266.802 120.363 267.755 119.964ZM274.411 116.298C274.411 115.449 274.151 114.79 273.631 114.322C273.128 113.854 272.435 113.62 271.551 113.62C270.684 113.62 269.991 113.854 269.471 114.322C268.968 114.79 268.717 115.457 268.717 116.324C268.717 117.104 268.977 117.728 269.497 118.196C270.034 118.664 270.719 118.898 271.551 118.898C272.383 118.898 273.068 118.664 273.605 118.196C274.142 117.711 274.411 117.078 274.411 116.298ZM271.551 121.55C270.563 121.55 269.757 121.801 269.133 122.304C268.526 122.807 268.223 123.526 268.223 124.462C268.223 125.329 268.518 126.039 269.107 126.594C269.714 127.131 270.528 127.4 271.551 127.4C272.574 127.4 273.38 127.123 273.969 126.568C274.558 126.013 274.853 125.311 274.853 124.462C274.853 123.543 274.55 122.833 273.943 122.33C273.336 121.81 272.539 121.55 271.551 121.55ZM291.118 115.778C290.945 115.05 290.641 114.504 290.208 114.14C289.792 113.776 289.185 113.594 288.388 113.594C287.192 113.594 286.308 114.079 285.736 115.05C285.181 116.003 284.895 117.563 284.878 119.73C285.294 119.037 285.901 118.499 286.698 118.118C287.495 117.719 288.362 117.52 289.298 117.52C290.425 117.52 291.421 117.763 292.288 118.248C293.155 118.733 293.831 119.444 294.316 120.38C294.801 121.299 295.044 122.408 295.044 123.708C295.044 124.939 294.793 126.039 294.29 127.01C293.805 127.963 293.085 128.709 292.132 129.246C291.179 129.783 290.043 130.052 288.726 130.052C286.923 130.052 285.502 129.653 284.462 128.856C283.439 128.059 282.72 126.949 282.304 125.528C281.905 124.089 281.706 122.321 281.706 120.224C281.706 117.052 282.252 114.66 283.344 113.048C284.436 111.419 286.161 110.604 288.518 110.604C290.338 110.604 291.751 111.098 292.756 112.086C293.761 113.074 294.342 114.305 294.498 115.778H291.118ZM288.466 120.51C287.547 120.51 286.776 120.779 286.152 121.316C285.528 121.853 285.216 122.633 285.216 123.656C285.216 124.679 285.502 125.485 286.074 126.074C286.663 126.663 287.487 126.958 288.544 126.958C289.48 126.958 290.217 126.672 290.754 126.1C291.309 125.528 291.586 124.757 291.586 123.786C291.586 122.781 291.317 121.983 290.78 121.394C290.26 120.805 289.489 120.51 288.466 120.51Z" fill="black"/>
<rect x="239" y="25" width="50" height="50" rx="16" fill="black"/>
<path d="M259.702 45.154V41.02H266.904V60H262.276V45.154H259.702Z" fill="white"/>
</svg>
