<svg width="320" height="160" viewBox="0 0 320 160" fill="none" xmlns="http://www.w3.org/2000/svg">
<rect width="320" height="160" rx="35" fill="#DBDAFF"/>
<path d="M45 113.238C56.7055 117.981 57.8977 99.1527 63.8589 95.9906C61.8726 87.1682 85.0185 103.229 84.0184 95.9906C83.0183 88.7526 98 74 98 74" stroke="#05DB5A" stroke-width="3.5"/>
<path d="M45 113.238C56.7055 117.981 57.8977 99.1527 63.8589 95.9906C61.8726 87.1682 85.0185 103.229 84.0184 95.9906C83.0183 88.7526 98 74 98 74" stroke="#05DB5A" stroke-width="3.5"/>
<path d="M45 113.238C56.7055 117.981 57.8977 99.1527 63.8589 95.9906C61.8726 87.1682 85.0185 103.229 84.0184 95.9906C83.0183 88.7526 98 74 98 74" stroke="#03D10B" stroke-opacity="0.8" stroke-width="3.5"/>
<path d="M227.43 113.038C227.517 111.305 228.123 109.97 229.25 109.034C230.394 108.081 231.893 107.604 233.748 107.604C235.013 107.604 236.097 107.829 236.998 108.28C237.899 108.713 238.575 109.311 239.026 110.074C239.494 110.819 239.728 111.669 239.728 112.622C239.728 113.714 239.442 114.641 238.87 115.404C238.315 116.149 237.648 116.652 236.868 116.912V117.016C237.873 117.328 238.653 117.883 239.208 118.68C239.78 119.477 240.066 120.5 240.066 121.748C240.066 122.788 239.823 123.715 239.338 124.53C238.87 125.345 238.168 125.986 237.232 126.454C236.313 126.905 235.204 127.13 233.904 127.13C231.945 127.13 230.351 126.636 229.12 125.648C227.889 124.66 227.239 123.204 227.17 121.28H230.706C230.741 122.129 231.027 122.814 231.564 123.334C232.119 123.837 232.873 124.088 233.826 124.088C234.71 124.088 235.386 123.845 235.854 123.36C236.339 122.857 236.582 122.216 236.582 121.436C236.582 120.396 236.253 119.651 235.594 119.2C234.935 118.749 233.913 118.524 232.526 118.524H231.772V115.534H232.526C234.987 115.534 236.218 114.711 236.218 113.064C236.218 112.319 235.993 111.738 235.542 111.322C235.109 110.906 234.476 110.698 233.644 110.698C232.829 110.698 232.197 110.923 231.746 111.374C231.313 111.807 231.061 112.362 230.992 113.038H227.43ZM242.786 123.308V120.448L251.288 108.28H255.526V120.136H257.814V123.308H255.526V127H251.886V123.308H242.786ZM252.12 112.18L246.79 120.136H252.12V112.18ZM272.872 111.192H264.448V115.638C264.812 115.187 265.332 114.823 266.008 114.546C266.684 114.251 267.403 114.104 268.166 114.104C269.553 114.104 270.688 114.407 271.572 115.014C272.456 115.621 273.097 116.401 273.496 117.354C273.895 118.29 274.094 119.295 274.094 120.37C274.094 122.363 273.522 123.967 272.378 125.18C271.251 126.393 269.639 127 267.542 127C265.566 127 263.989 126.506 262.81 125.518C261.631 124.53 260.964 123.239 260.808 121.644H264.344C264.5 122.337 264.847 122.892 265.384 123.308C265.939 123.724 266.641 123.932 267.49 123.932C268.513 123.932 269.284 123.611 269.804 122.97C270.324 122.329 270.584 121.479 270.584 120.422C270.584 119.347 270.315 118.533 269.778 117.978C269.258 117.406 268.487 117.12 267.464 117.12C266.736 117.12 266.129 117.302 265.644 117.666C265.159 118.03 264.812 118.515 264.604 119.122H261.12V107.994H272.872V111.192ZM276.422 111.4V108.046H282.688V127H278.944V111.4H276.422Z" fill="black"/>
<rect x="226" y="22" width="50" height="50" rx="16" fill="black"/>
<path d="M245.014 53.438C245.603 52.97 245.872 52.7533 245.82 52.788C247.519 51.384 248.853 50.2313 249.824 49.33C250.812 48.4287 251.644 47.484 252.32 46.496C252.996 45.508 253.334 44.546 253.334 43.61C253.334 42.8993 253.169 42.3447 252.84 41.946C252.511 41.5473 252.017 41.348 251.358 41.348C250.699 41.348 250.179 41.5993 249.798 42.102C249.434 42.5873 249.252 43.2807 249.252 44.182H244.962C244.997 42.7087 245.309 41.478 245.898 40.49C246.505 39.502 247.293 38.774 248.264 38.306C249.252 37.838 250.344 37.604 251.54 37.604C253.603 37.604 255.154 38.1327 256.194 39.19C257.251 40.2473 257.78 41.6253 257.78 43.324C257.78 45.1787 257.147 46.9033 255.882 48.498C254.617 50.0753 253.005 51.618 251.046 53.126H258.066V56.74H245.014V53.438Z" fill="white"/>
</svg>
