<svg width="320" height="160" viewBox="0 0 320 160" fill="none" xmlns="http://www.w3.org/2000/svg">
<rect width="320" height="160" rx="35" fill="#FFEAEA"/>
<path d="M33 117.238C44.7055 121.981 45.8977 103.153 51.8589 99.9906C49.8726 91.1682 73.0185 107.229 72.0184 99.9906C71.0183 92.7526 86 78 86 78" stroke="#05DB5A" stroke-width="3.5"/>
<path d="M33 117.238C44.7055 121.981 45.8977 103.153 51.8589 99.9906C49.8726 91.1682 73.0185 107.229 72.0184 99.9906C71.0183 92.7526 86 78 86 78" stroke="#05DB5A" stroke-width="3.5"/>
<path d="M33 117.238C44.7055 121.981 45.8977 103.153 51.8589 99.9906C49.8726 91.1682 73.0185 107.229 72.0184 99.9906C71.0183 92.7526 86 78 86 78" stroke="#CE1F1F" stroke-opacity="0.8" stroke-width="3.5"/>
<path d="M228.222 126.308V123.448L236.724 111.28H240.962V123.136H243.25V126.308H240.962V130H237.322V126.308H228.222ZM237.556 115.18L232.226 123.136H237.556V115.18ZM258.307 114.192H249.883V118.638C250.247 118.187 250.767 117.823 251.443 117.546C252.119 117.251 252.839 117.104 253.601 117.104C254.988 117.104 256.123 117.407 257.007 118.014C257.891 118.621 258.533 119.401 258.931 120.354C259.33 121.29 259.529 122.295 259.529 123.37C259.529 125.363 258.957 126.967 257.813 128.18C256.687 129.393 255.075 130 252.977 130C251.001 130 249.424 129.506 248.245 128.518C247.067 127.53 246.399 126.239 246.243 124.644H249.779C249.935 125.337 250.282 125.892 250.819 126.308C251.374 126.724 252.076 126.932 252.925 126.932C253.948 126.932 254.719 126.611 255.239 125.97C255.759 125.329 256.019 124.479 256.019 123.422C256.019 122.347 255.751 121.533 255.213 120.978C254.693 120.406 253.922 120.12 252.899 120.12C252.171 120.12 251.565 120.302 251.079 120.666C250.594 121.03 250.247 121.515 250.039 122.122H246.555V110.994H258.307V114.192ZM272.128 115.778C271.955 115.05 271.651 114.504 271.218 114.14C270.802 113.776 270.195 113.594 269.398 113.594C268.202 113.594 267.318 114.079 266.746 115.05C266.191 116.003 265.905 117.563 265.888 119.73C266.304 119.037 266.911 118.499 267.708 118.118C268.505 117.719 269.372 117.52 270.308 117.52C271.435 117.52 272.431 117.763 273.298 118.248C274.165 118.733 274.841 119.444 275.326 120.38C275.811 121.299 276.054 122.408 276.054 123.708C276.054 124.939 275.803 126.039 275.3 127.01C274.815 127.963 274.095 128.709 273.142 129.246C272.189 129.783 271.053 130.052 269.736 130.052C267.933 130.052 266.512 129.653 265.472 128.856C264.449 128.059 263.73 126.949 263.314 125.528C262.915 124.089 262.716 122.321 262.716 120.224C262.716 117.052 263.262 114.66 264.354 113.048C265.446 111.419 267.171 110.604 269.528 110.604C271.348 110.604 272.761 111.098 273.766 112.086C274.771 113.074 275.352 114.305 275.508 115.778H272.128ZM269.476 120.51C268.557 120.51 267.786 120.779 267.162 121.316C266.538 121.853 266.226 122.633 266.226 123.656C266.226 124.679 266.512 125.485 267.084 126.074C267.673 126.663 268.497 126.958 269.554 126.958C270.49 126.958 271.227 126.672 271.764 126.1C272.319 125.528 272.596 124.757 272.596 123.786C272.596 122.781 272.327 121.983 271.79 121.394C271.27 120.805 270.499 120.51 269.476 120.51ZM290.995 113.802L284.079 130H280.387L287.355 114.218H278.463V111.098H290.995V113.802Z" fill="black"/>
<rect x="235" y="25" width="50" height="50" rx="16" fill="black"/>
<path d="M253.326 46.376C253.395 44.5213 254.002 43.0913 255.146 42.086C256.29 41.0807 257.841 40.578 259.8 40.578C261.1 40.578 262.209 40.8033 263.128 41.254C264.064 41.7047 264.766 42.32 265.234 43.1C265.719 43.88 265.962 44.7553 265.962 45.726C265.962 46.87 265.676 47.806 265.104 48.534C264.532 49.2447 263.865 49.73 263.102 49.99V50.094C264.09 50.4233 264.87 50.9693 265.442 51.732C266.014 52.4947 266.3 53.474 266.3 54.67C266.3 55.7447 266.049 56.698 265.546 57.53C265.061 58.3447 264.341 58.986 263.388 59.454C262.452 59.922 261.334 60.156 260.034 60.156C257.954 60.156 256.29 59.6447 255.042 58.622C253.811 57.5993 253.161 56.0567 253.092 53.994H257.408C257.425 54.7567 257.642 55.3633 258.058 55.814C258.474 56.2473 259.081 56.464 259.878 56.464C260.554 56.464 261.074 56.2733 261.438 55.892C261.819 55.4933 262.01 54.9733 262.01 54.332C262.01 53.5 261.741 52.902 261.204 52.538C260.684 52.1567 259.843 51.966 258.682 51.966H257.85V48.352H258.682C259.566 48.352 260.277 48.2047 260.814 47.91C261.369 47.598 261.646 47.052 261.646 46.272C261.646 45.648 261.473 45.1627 261.126 44.816C260.779 44.4693 260.303 44.296 259.696 44.296C259.037 44.296 258.543 44.4953 258.214 44.894C257.902 45.2927 257.72 45.7867 257.668 46.376H253.326Z" fill="white"/>
</svg>
