<svg width="42" height="42" viewBox="0 0 42 42" fill="none" xmlns="http://www.w3.org/2000/svg">
<g filter="url(#filter0_d_82_741)">
<circle cx="21" cy="17" r="15" fill="#666666"/>
<circle cx="21" cy="17" r="15.8" stroke="white" stroke-width="1.6"/>
</g>
<path d="M12.8149 17.1402C12.8149 17.1398 12.8149 17.1394 12.8149 17.1391L13.8696 17.1402M12.8149 17.1402C12.8149 17.1405 12.8149 17.1409 12.8149 17.1413H13.8696M12.8149 17.1402C12.8149 17.1461 12.8149 17.152 12.8149 17.158M12.8149 17.1402L12.8149 17.158M13.8696 17.1402C13.8696 17.1406 13.8696 17.1409 13.8696 17.1413M13.8696 17.1402L14.8149 17.1413M13.8696 17.1402C13.8722 14.9875 14.8691 13.0517 16.4544 11.7629M13.8696 17.1413C13.8696 17.1463 13.8696 17.1514 13.8696 17.1564L14.8149 17.1413M13.8696 17.1413H14.8149M14.8149 17.1413L17.5614 11.1304C17.7276 11.4214 17.7063 11.7716 17.5274 12.037V11.1498L16.8112 11.5591M16.4544 11.7629L16.8111 11.5591M16.4544 11.7629C16.4549 11.7625 16.4555 11.762 16.4561 11.7615L15.8246 12.1221L15.8249 12.1226L16.4544 11.7629ZM16.8111 11.5591L17.3184 12.2536L16.8112 11.5591M16.8111 11.5591L16.8112 11.5591M16.8111 11.5591L16.811 11.5589L16.8112 11.5591M25.0204 10.1123L25.7912 10.5545L25.7919 10.5548L26.7552 11.1074M25.0204 10.1123L13.8696 17.1569M25.0204 10.1123L25.7921 10.5532L25.7928 10.5536L26.757 11.1045L26.7552 11.1074M25.0204 10.1123L12.8149 17.1582M26.7552 11.1074C26.7197 11.1694 26.6793 11.2266 26.6348 11.2788M26.7552 11.1074L26.6495 11.2926M26.6348 11.2788C26.3924 11.0514 26.1341 10.8369 25.8605 10.637M26.6348 11.2788C26.5456 11.3836 26.4399 11.4684 26.3243 11.5318M26.6348 11.2788C26.6397 11.2834 26.6446 11.288 26.6495 11.2926M25.8605 10.637C25.8596 10.6363 25.8587 10.6356 25.8577 10.635M25.8605 10.637C25.8596 10.6363 25.8587 10.6356 25.8577 10.635M25.8605 10.637C26.1534 10.8523 26.3165 11.187 26.3243 11.5318M25.8577 10.635C25.8576 10.6349 25.8575 10.6348 25.8574 10.6347L25.2186 11.5096M25.8577 10.635L25.2188 11.5097M25.2186 11.5096C25.1959 11.4959 25.1735 11.4814 25.1515 11.4659C25.1733 11.4812 25.195 11.4967 25.2167 11.5123M25.2186 11.5096L25.2167 11.5123M25.2186 11.5096C25.2187 11.5096 25.2187 11.5097 25.2188 11.5097M25.2167 11.5123L25.1844 11.5564L25.1824 11.5591L24.678 12.25L25.1826 11.5592L25.1846 11.5565L25.2168 11.5124M25.2167 11.5123C25.2167 11.5123 25.2168 11.5123 25.2168 11.5124M25.2168 11.5124C25.3278 11.5922 25.4363 11.6751 25.5421 11.7608C25.55 11.7673 25.558 11.7737 25.5659 11.7802C27.1317 13.0596 28.1164 14.9689 28.1303 17.099M25.2168 11.5124L25.2188 11.5097M28.1303 17.099L27.1852 17.105L28.1304 17.0995M28.1303 17.099L29.1852 17.0922M28.1303 17.099C28.1303 17.0991 28.1304 17.0993 28.1304 17.0995M28.1304 17.0995C28.1304 17.1146 28.1305 17.1297 28.1305 17.1449C28.1305 20.9676 24.9752 24.1218 21.0142 24.1304C21.0095 24.1304 21.0048 24.1304 21.0001 24.1304C17.0557 24.1314 13.8756 20.9658 13.8696 17.1569M28.1304 17.0995L29.1852 17.0933C29.1852 17.0929 29.1852 17.0925 29.1852 17.0922M13.8696 17.1569L12.8149 17.1582M13.8696 17.1569L12.8149 17.1582M29.1852 17.0922C29.1853 17.1098 29.1853 17.1273 29.1853 17.1449C29.1858 21.7166 25.4185 25.2231 21.0165 25.2318C21.011 25.2318 21.0056 25.2318 21.0001 25.2318C16.481 25.2318 12.8205 21.6211 12.8149 17.1582M29.1852 17.0922C29.1721 14.9165 28.267 12.8173 26.6495 11.2926M12.8149 17.1582L11.8696 17.1594L12.8149 17.158M12.8149 17.1582C12.8149 17.1581 12.8149 17.1581 12.8149 17.158M26.6495 11.2926L26.1753 12.1226L26.1714 12.1292C26.1727 12.127 26.174 12.1248 26.1752 12.1226C26.2808 11.9366 26.3289 11.7325 26.3243 11.5318M25.2188 11.5097C25.5679 11.7198 25.9884 11.716 26.3243 11.5318M24.4727 12.0381C24.2919 11.7723 24.2716 11.4203 24.4387 11.1304L24.4727 11.0709V11.1498V11.15V12.0381ZM19.5274 10.6496V12.4612C19.7204 11.883 19.7279 11.2472 19.5274 10.6496ZM22.4727 10.6481C22.2715 11.2458 22.2781 11.8842 22.4727 12.465V10.6481Z" fill="white" stroke="white" stroke-width="4"/>
<defs>
<filter id="filter0_d_82_741" x="0.399902" y="0.399994" width="41.2002" height="41.2" filterUnits="userSpaceOnUse" color-interpolation-filters="sRGB">
<feFlood flood-opacity="0" result="BackgroundImageFix"/>
<feColorMatrix in="SourceAlpha" type="matrix" values="0 0 0 0 0 0 0 0 0 0 0 0 0 0 0 0 0 0 127 0" result="hardAlpha"/>
<feOffset dy="4"/>
<feGaussianBlur stdDeviation="2"/>
<feComposite in2="hardAlpha" operator="out"/>
<feColorMatrix type="matrix" values="0 0 0 0 1 0 0 0 0 1 0 0 0 0 1 0 0 0 0.25 0"/>
<feBlend mode="normal" in2="BackgroundImageFix" result="effect1_dropShadow_82_741"/>
<feBlend mode="normal" in="SourceGraphic" in2="effect1_dropShadow_82_741" result="shape"/>
</filter>
</defs>
</svg>
