<svg width="42" height="42" viewBox="0 0 42 42" fill="none" xmlns="http://www.w3.org/2000/svg">
<g filter="url(#filter0_d_80_675)">
<circle cx="21" cy="17" r="15" fill="#E10000"/>
<circle cx="21" cy="17" r="15.8" stroke="#DD2121" stroke-width="1.6"/>
</g>
<path d="M12.8148 17.1402C12.8148 17.1398 12.8148 17.1394 12.8148 17.1391L13.8695 17.1402M12.8148 17.1402C12.8148 17.1405 12.8148 17.1409 12.8148 17.1413H13.8695M12.8148 17.1402C12.8148 17.1461 12.8148 17.152 12.8148 17.158M12.8148 17.1402L12.8148 17.158M13.8695 17.1402C13.8695 17.1406 13.8695 17.1409 13.8695 17.1413M13.8695 17.1402L14.8148 17.1413M13.8695 17.1402C13.872 14.9875 14.869 13.0517 16.4542 11.7629M13.8695 17.1413C13.8695 17.1463 13.8695 17.1514 13.8695 17.1564L14.8148 17.1413M13.8695 17.1413H14.8148M14.8148 17.1413L17.5613 11.1304C17.7274 11.4214 17.7062 11.7716 17.5273 12.037V11.1498L16.811 11.5591M16.4542 11.7629L16.811 11.5591M16.4542 11.7629C16.4548 11.7625 16.4554 11.762 16.456 11.7615L15.8245 12.1221L15.8248 12.1226L16.4542 11.7629ZM16.811 11.5591L17.3183 12.2536L16.811 11.5591M16.811 11.5591L16.811 11.5591M16.811 11.5591L16.8109 11.5589L16.811 11.5591M25.0203 10.1123L25.7911 10.5545L25.7918 10.5548L26.7551 11.1074M25.0203 10.1123L13.8695 17.1569M25.0203 10.1123L25.792 10.5532L25.7926 10.5536L26.7568 11.1045L26.7551 11.1074M25.0203 10.1123L12.8148 17.1582M26.7551 11.1074C26.7196 11.1694 26.6792 11.2266 26.6347 11.2788M26.7551 11.1074L26.6493 11.2926M26.6347 11.2788C26.3923 11.0514 26.134 10.8369 25.8604 10.637M26.6347 11.2788C26.5454 11.3836 26.4398 11.4684 26.3242 11.5318M26.6347 11.2788C26.6396 11.2834 26.6445 11.288 26.6493 11.2926M25.8604 10.637C25.8595 10.6363 25.8585 10.6356 25.8576 10.635M25.8604 10.637C25.8595 10.6363 25.8585 10.6356 25.8576 10.635M25.8604 10.637C26.1533 10.8523 26.3164 11.187 26.3242 11.5318M25.8576 10.635C25.8575 10.6349 25.8574 10.6348 25.8573 10.6347L25.2185 11.5096M25.8576 10.635L25.2186 11.5097M25.2185 11.5096C25.1958 11.4959 25.1734 11.4814 25.1513 11.4659C25.1732 11.4812 25.1949 11.4967 25.2165 11.5123M25.2185 11.5096L25.2165 11.5123M25.2185 11.5096C25.2185 11.5096 25.2186 11.5097 25.2186 11.5097M25.2165 11.5123L25.1843 11.5564L25.1823 11.5591L24.6779 12.25L25.1825 11.5592L25.1844 11.5565L25.2167 11.5124M25.2165 11.5123C25.2166 11.5123 25.2166 11.5123 25.2167 11.5124M25.2167 11.5124C25.3277 11.5922 25.4361 11.6751 25.542 11.7608C25.5499 11.7673 25.5578 11.7737 25.5658 11.7802C27.1316 13.0596 28.1163 14.9689 28.1302 17.099M25.2167 11.5124L25.2186 11.5097M28.1302 17.099L27.1851 17.105L28.1302 17.0995M28.1302 17.099L29.185 17.0922M28.1302 17.099C28.1302 17.0991 28.1302 17.0993 28.1302 17.0995M28.1302 17.0995C28.1303 17.1146 28.1304 17.1297 28.1304 17.1449C28.1304 20.9676 24.9751 24.1218 21.014 24.1304C21.0093 24.1304 21.0046 24.1304 20.9999 24.1304C17.0555 24.1314 13.8755 20.9658 13.8695 17.1569M28.1302 17.0995L29.185 17.0933C29.185 17.0929 29.185 17.0925 29.185 17.0922M13.8695 17.1569L12.8148 17.1582M13.8695 17.1569L12.8148 17.1582M29.185 17.0922C29.1851 17.1098 29.1852 17.1273 29.1852 17.1449C29.1857 21.7166 25.4184 25.2231 21.0164 25.2318C21.0109 25.2318 21.0054 25.2318 20.9999 25.2318C16.4809 25.2318 12.8204 21.6211 12.8148 17.1582M29.185 17.0922C29.1719 14.9165 28.2668 12.8173 26.6493 11.2926M12.8148 17.1582L11.8695 17.1594L12.8148 17.158M12.8148 17.1582C12.8148 17.1581 12.8148 17.1581 12.8148 17.158M26.6493 11.2926L26.1751 12.1226L26.1713 12.1292C26.1726 12.127 26.1739 12.1248 26.1751 12.1226C26.2807 11.9366 26.3287 11.7325 26.3242 11.5318M25.2186 11.5097C25.5678 11.7198 25.9882 11.716 26.3242 11.5318M24.4726 12.0381C24.2918 11.7723 24.2715 11.4203 24.4386 11.1304L24.4726 11.0709V11.1498V11.15V12.0381ZM19.5273 10.6496V12.4612C19.7202 11.883 19.7278 11.2472 19.5273 10.6496ZM22.4726 10.6481C22.2714 11.2458 22.278 11.8842 22.4726 12.465V10.6481Z" fill="white" stroke="white" stroke-width="4"/>
<defs>
<filter id="filter0_d_80_675" x="0.400024" y="0.399994" width="41.2" height="41.2" filterUnits="userSpaceOnUse" color-interpolation-filters="sRGB">
<feFlood flood-opacity="0" result="BackgroundImageFix"/>
<feColorMatrix in="SourceAlpha" type="matrix" values="0 0 0 0 0 0 0 0 0 0 0 0 0 0 0 0 0 0 127 0" result="hardAlpha"/>
<feOffset dy="4"/>
<feGaussianBlur stdDeviation="2"/>
<feComposite in2="hardAlpha" operator="out"/>
<feColorMatrix type="matrix" values="0 0 0 0 1 0 0 0 0 0.558333 0 0 0 0 0.558333 0 0 0 0.25 0"/>
<feBlend mode="normal" in2="BackgroundImageFix" result="effect1_dropShadow_80_675"/>
<feBlend mode="normal" in="SourceGraphic" in2="effect1_dropShadow_80_675" result="shape"/>
</filter>
</defs>
</svg>
